<?xml version="1.0" encoding="utf-8"?>
<!-- Generator: Adobe Illustrator 23.0.1, SVG Export Plug-In . SVG Version: 6.00 Build 0)  -->
<svg version="1.1" id="Layer_1" xmlns="http://www.w3.org/2000/svg" xmlns:xlink="http://www.w3.org/1999/xlink" x="0px" y="0px"
	 viewBox="0 0 262.3 82.6" style="enable-background:new 0 0 262.3 82.6;" xml:space="preserve">
<style type="text/css">
	.st0{fill:#005F92;}
	.st1{fill:#F40634;}
</style>
<g>
	<g>
		<path class="st0" d="M47.5,33.1c7.3-1.5,10.8-5.5,10.8-11.8C58.4,11.9,52.6,8.1,37.9,8L14.3,7.9v5.9h4.1c1.1,0,1.5,0.6,1.5,2.2
			l-0.2,36c0,1.7-0.4,2.3-1.6,2.3H14v5.9l23.6,0.1c15.9,0.1,22.8-4.2,22.8-14.2C60.5,38.7,56.3,34.4,47.5,33.1 M30.9,13.9h6.6
			c6.8,0,9.2,2.3,9.2,8.6c0,6-3.2,8.5-9.8,8.5h-6.2L30.9,13.9z M38.1,54.5h-7.4l0.1-18.3h7.9c6.9,0,10,2.6,9.9,9.4
			C48.5,52.1,45.7,54.5,38.1,54.5"/>
		<path class="st0" d="M82.7,17.5c-12.2-0.1-20.6,8.9-20.6,22c-0.1,12.9,7,22.2,21.4,22.3c10.2,0.1,15.6-5.3,17.8-12l-6.1-3
			c-1.9,5.1-5.2,8.1-10.7,8c-7.4,0-11-5.2-11.2-13.1l28.7,0.2v-2.2C102,25.9,95.2,17.6,82.7,17.5 M73.1,35.9
			c0.5-8.3,3.8-11.8,9.5-11.8s8.2,3.3,8.3,11.9L73.1,35.9z"/>
		<path class="st0" d="M129.8,17.8c-4.7,0-8.8,2.7-10.7,9.4l0.1-9.2c-1.9,0.4-5.5,0.8-9.5,0.8h-6.6v6.5h3.8c1.1,0,1.4,0.5,1.4,2.6
			L108,52.1c0,2-0.5,2.2-1.4,2.2H103v6.5l21.1,0.1v-6.5h-3.8c-0.9,0-1.4-0.3-1.4-2.2L119,39c0-8.8,2.8-14,8.2-14
			c1.2,0,2.1,0.4,2.7,0.9c-2.4,0.8-3.9,3.2-3.9,5.5c0,3.1,2.5,5.7,5.5,5.7c4.6,0,7.7-3.6,7.7-9C139.2,21.8,135.6,17.8,129.8,17.8"/>
		<path class="st0" d="M181.3,52.5l0.1-18.7c0-10.6-4.4-15.8-12.7-15.8c-6.3,0-10.9,2.8-13.4,8.6v-8.4c-1.8,0.4-5.4,0.8-9.4,0.8
			l-9.2-0.1c2.1,1,3.6,4.8,3.8,6.5h2.6c1.1,0,1.4,0.5,1.4,2.6l-0.1,24.2c0,2-0.5,2.2-1.4,2.2h-3.6v6.5l20.4,0.1v-6.5h-3.2
			c-0.9,0-1.4-0.3-1.4-2.2l0.1-13.1c0.1-9.4,3.2-13.7,8.7-13.7c4.5,0,6.5,2.5,6.4,8.4l-0.1,18.5c0,2-0.5,2.2-1.4,2.2h-3.2v6.5
			l20.4,0.1v-6.5h-3.6C181.8,54.7,181.3,54.5,181.3,52.5"/>
		<path class="st0" d="M203.4,52.6l0.2-34.1c-1.9,0.4-5.5,0.8-9.5,0.8h-6.5v6.5h3.2c1.4,0,1.8,0.8,1.8,3.5l-0.1,23.4
			c0,1.8-0.4,2.2-1.3,2.2h-3.6v6.5l20.7,0.1V55h-3.4C203.8,54.8,203.4,54.4,203.4,52.6"/>
		<path class="st0" d="M248.1,40.6c0.1-13.9-6.8-22.2-19.2-22.3c-12.2-0.1-20.6,8.9-20.6,22c-0.1,12.9,7.1,22.2,21.4,22.3
			c10.2,0.1,15.6-5.3,17.8-12l-6.1-3c-1.9,5.1-5.1,8.1-10.7,8c-7.4,0-11-5.2-11.2-13.1l28.7,0.2L248.1,40.6z M219.3,36.7
			c0.5-8.3,3.8-11.8,9.5-11.8c5.8,0,8.2,3.3,8.3,11.9L219.3,36.7z"/>
		<path class="st0" d="M190.8,16.4l5.2-3.9l5.2,3.9l-2-6.3l5.2-3.8H198L196.1,0l-2,6.3h-6.4l5.1,3.9L190.8,16.4z"/>
	</g>
	<path class="st1" d="M262.3,79.7c0,0-1-0.2-2.8-0.6c-0.9-0.2-2-0.4-3.3-0.7c-1.3-0.2-2.8-0.5-4.5-0.8c-3.4-0.6-7.6-1.1-12.3-1.6
		c-4.8-0.5-10.1-1-16-1.3s-12.2-0.6-19-0.7c-3.4,0-6.9,0-10.4,0s-7.1,0.1-10.8,0.1c-7.3,0.2-14.9,0.4-22.6,0.8
		c-7.7,0.4-15.5,0.9-23.4,1.5c-3.9,0.3-7.8,0.6-11.7,1c-3.9,0.3-7.8,0.7-11.6,1.1c-1.9,0.2-3.8,0.4-5.7,0.6
		c-1.9,0.2-3.8,0.4-5.7,0.6c-1.9,0.2-3.8,0.4-5.6,0.6c-1.9,0.2-3.7,0.4-5.6,0.6c-7.4,0.7-14.5,1.2-21.3,1.5
		c-3.4,0.1-6.7,0.2-9.9,0.2s-6.3,0-9.3-0.1c-5.9-0.2-11.4-0.5-16.2-1.1s-9-1.2-12.4-2.1c-1.7-0.4-3.2-0.9-4.5-1.3s-2.4-0.9-3.3-1.3
		c-0.9-0.4-1.5-0.8-1.9-1.1c-0.4-0.3-0.6-0.4-0.6-0.4s0.2,0.1,0.7,0.3c0.5,0.2,1.1,0.4,2,0.6s2,0.5,3.3,0.7s2.8,0.4,4.5,0.5
		s3.6,0.2,5.7,0.3c2.1,0.1,4.3,0.1,6.7,0c4.8,0,10.1-0.3,16-0.6c2.9-0.2,6-0.4,9.1-0.6c3.2-0.3,6.4-0.5,9.8-0.8
		c6.7-0.6,13.8-1.4,21.1-2.2c3.7-0.4,7.4-0.9,11.2-1.3c3.8-0.4,7.6-0.9,11.5-1.2c3.9-0.4,7.8-0.7,11.7-1.1c3.9-0.3,7.9-0.6,11.8-0.8
		c7.9-0.5,15.8-0.8,23.6-1s15.4-0.2,22.8,0c3.7,0.1,7.3,0.2,10.9,0.4c3.6,0.2,7,0.4,10.4,0.6c6.8,0.5,13.2,1.2,19.1,1.9
		c5.9,0.8,11.3,1.7,16,2.6c4.7,1,8.9,1.9,12.2,2.8c1.7,0.4,3.2,0.9,4.5,1.3c1.3,0.4,2.4,0.8,3.3,1.1
		C261.4,79.4,262.3,79.7,262.3,79.7"/>
	<path class="st0" d="M250.2,67.6c0,0-1-0.2-2.8-0.6c-0.9-0.2-2-0.4-3.3-0.7c-1.3-0.2-2.8-0.5-4.5-0.8c-3.4-0.6-7.5-1.2-12.3-1.7
		c-4.8-0.6-10.1-1.1-16-1.4c-5.9-0.4-12.2-0.7-19-0.8c-6.7-0.1-13.8-0.2-21.2-0.1c-7.3,0.1-14.9,0.4-22.6,0.7
		c-7.7,0.4-15.5,0.9-23.3,1.5c-7.8,0.6-15.6,1.3-23.3,2.1c-1.9,0.2-3.8,0.4-5.7,0.6c-1.9,0.2-3.8,0.4-5.7,0.6
		c-3.8,0.4-7.5,0.9-11.2,1.3C71.9,69,64.8,69.5,58,69.8c-6.8,0.4-13.2,0.4-19.1,0.4c-5.9-0.1-11.3-0.4-16.2-0.8
		c-4.8-0.5-9-1.1-12.4-1.9c-1.7-0.4-3.2-0.8-4.5-1.2c-1.3-0.4-2.4-0.8-3.3-1.2c-0.9-0.4-1.5-0.7-1.9-1C0.2,63.7,0,63.6,0,63.6
		s0.2,0.1,0.7,0.3c0.5,0.2,1.1,0.4,2,0.7c1.8,0.5,4.4,1,7.8,1.4c1.7,0.2,3.6,0.3,5.6,0.4c2.1,0.1,4.3,0.1,6.7,0.1s4.9,0,7.6-0.1
		s5.5-0.2,8.4-0.4c5.9-0.3,12.2-0.8,18.9-1.3c3.4-0.3,6.8-0.6,10.3-1c3.5-0.4,7.1-0.7,10.8-1.2c7.3-0.9,14.9-1.8,22.6-2.6
		s15.6-1.4,23.4-2c7.9-0.5,15.7-0.8,23.5-1.1c7.8-0.2,15.4-0.3,22.8-0.1c7.4,0.1,14.5,0.4,21.3,0.9s13.1,1.1,19,1.8s11.3,1.6,16,2.4
		c4.7,0.9,8.9,1.8,12.2,2.7c1.7,0.4,3.2,0.9,4.5,1.2c1.3,0.4,2.4,0.7,3.3,1C249.2,67.3,250.2,67.6,250.2,67.6"/>
</g>
</svg>
